G04*
G04 #@! TF.GenerationSoftware,Altium Limited,Altium Designer,21.3.2 (30)*
G04*
G04 Layer_Color=65535*
%FSTAX24Y24*%
%MOIN*%
G70*
G04*
G04 #@! TF.SameCoordinates,3835C71C-0E0A-43B1-8D6D-11D42CA83844*
G04*
G04*
G04 #@! TF.FilePolarity,Positive*
G04*
G01*
G75*
%ADD10C,0.0079*%
%ADD11C,0.0070*%
%ADD12C,0.0100*%
G36*
X01445Y04025D02*
X0142Y0405D01*
Y04035D01*
X01395D01*
Y04015D01*
X0142D01*
Y04D01*
X01445Y04025D01*
D02*
G37*
D10*
X027904Y049935D02*
G03*
X031348Y049935I001722J0D01*
G01*
X04425Y03805D02*
G03*
X04475Y03805I00025J0D01*
G01*
X035829Y028042D02*
G03*
X036321Y028042I000246J0D01*
G01*
X022573Y049935D02*
X027904D01*
X031348D02*
X036679D01*
Y036155D02*
Y049935D01*
X022573Y036155D02*
X036679D01*
X022573D02*
Y049935D01*
X040321Y02305D02*
Y03805D01*
Y02305D02*
X048679D01*
Y03805D01*
X04475D02*
X048679D01*
X040321D02*
X04425D01*
X035321Y027058D02*
Y028042D01*
Y027058D02*
X036829D01*
Y028042D01*
X036321D02*
X036829D01*
X035321D02*
X035829D01*
X03455Y0334D02*
X03555D01*
X03455Y032302D02*
X03555D01*
X03455D02*
Y035498D01*
X03555D01*
Y032302D02*
Y035498D01*
X042802Y0464D02*
Y04975D01*
X047D01*
Y0464D02*
Y04975D01*
X042802Y0464D02*
X047D01*
X05465Y037752D02*
Y040948D01*
X05365D02*
X05465D01*
X05365Y037752D02*
Y040948D01*
Y037752D02*
X05465D01*
X05365Y03885D02*
X05465D01*
D11*
X014054Y038852D02*
G03*
X014Y038798I-000454J000398D01*
G01*
X015184Y04125D02*
G03*
X015184Y04125I-000064J0D01*
G01*
X015194Y03923D02*
G03*
X015194Y03923I-000064J0D01*
G01*
X014061Y04086D02*
G03*
X014Y040798I-000461J00039D01*
G01*
X01165Y0448D02*
Y0481D01*
X0171Y0448D02*
Y0481D01*
X01165D02*
X0171D01*
X01165Y0448D02*
X0171D01*
X01235D02*
Y0481D01*
X01545Y03825D02*
X0156D01*
X01545D02*
Y03835D01*
X0156Y03825D02*
Y04225D01*
X01281Y03825D02*
X014D01*
X0126D02*
Y04225D01*
X01318Y03967D02*
X014025Y038825D01*
X01281Y04023D02*
X01432D01*
X01515Y04231D02*
X0154D01*
X0141Y04225D02*
X0156D01*
X01511Y03835D02*
X01542D01*
X01511Y03825D02*
Y03835D01*
X0126Y03825D02*
X01511D01*
X0126Y04225D02*
X0141D01*
X0146Y03825D02*
Y04225D01*
X01318Y04167D02*
X01403Y04082D01*
D12*
X03414Y03074D02*
X03404Y03084D01*
X03384D01*
X03374Y03074D01*
Y03034D01*
X03384Y03024D01*
X03404D01*
X03414Y03034D01*
X03464Y03084D02*
X03444D01*
X03434Y03074D01*
Y03034D01*
X03444Y03024D01*
X03464D01*
X03474Y03034D01*
Y03074D01*
X03464Y03084D01*
X03494D02*
X03514D01*
X03504D01*
Y03024D01*
X03494D01*
X03514D01*
X035439Y03014D02*
X035839D01*
X036439Y03074D02*
X036339Y03084D01*
X036139D01*
X036039Y03074D01*
Y03034D01*
X036139Y03024D01*
X036339D01*
X036439Y03034D01*
X036639Y03084D02*
Y03024D01*
Y03054D01*
X037039D01*
Y03084D01*
Y03024D01*
X037239Y03084D02*
X037439D01*
X037339D01*
Y03024D01*
X037239D01*
X037439D01*
X037739D02*
Y03084D01*
X038039D01*
X038139Y03074D01*
Y03054D01*
X038039Y03044D01*
X037739D01*
X03461Y03584D02*
Y03644D01*
X03491D01*
X03501Y03634D01*
Y03614D01*
X03491Y03604D01*
X03461D01*
X03481D02*
X03501Y03584D01*
X03561Y03644D02*
X03521D01*
Y03584D01*
X03561D01*
X03521Y03614D02*
X03541D01*
X03581Y03644D02*
Y03584D01*
X036209D01*
X036409D02*
Y03624D01*
X036609Y03644D01*
X036809Y03624D01*
Y03584D01*
Y03614D01*
X036409D01*
X037009Y03644D02*
Y03634D01*
X037209Y03614D01*
X037409Y03634D01*
Y03644D01*
X037209Y03614D02*
Y03584D01*
X04278Y05022D02*
Y05082D01*
X04308D01*
X04318Y05072D01*
Y05052D01*
X04308Y05042D01*
X04278D01*
X04338Y05022D02*
Y05082D01*
X04358Y05062D01*
X04378Y05082D01*
Y05022D01*
X044379Y05072D02*
X04428Y05082D01*
X04408D01*
X04398Y05072D01*
Y05062D01*
X04408Y05052D01*
X04428D01*
X044379Y05042D01*
Y05032D01*
X04428Y05022D01*
X04408D01*
X04398Y05032D01*
X044579Y05082D02*
X044979D01*
Y05072D01*
X044579Y05032D01*
Y05022D01*
X045179Y05072D02*
X045279Y05082D01*
X045479D01*
X045579Y05072D01*
Y05032D01*
X045479Y05022D01*
X045279D01*
X045179Y05032D01*
Y05072D01*
X045779D02*
X045879Y05082D01*
X046079D01*
X046179Y05072D01*
Y05032D01*
X046079Y05022D01*
X045879D01*
X045779Y05032D01*
Y05072D01*
X046379D02*
X046479Y05082D01*
X046679D01*
X046779Y05072D01*
Y05062D01*
X046679Y05052D01*
X046579D01*
X046679D01*
X046779Y05042D01*
Y05032D01*
X046679Y05022D01*
X046479D01*
X046379Y05032D01*
X01266Y04264D02*
Y04324D01*
X01286Y04304D01*
X01306Y04324D01*
Y04264D01*
X01356Y04324D02*
X01336D01*
X01326Y04314D01*
Y04274D01*
X01336Y04264D01*
X01356D01*
X01366Y04274D01*
Y04314D01*
X01356Y04324D01*
X01386D02*
X014259D01*
X01406D01*
Y04264D01*
X014759Y04324D02*
X014559D01*
X014459Y04314D01*
Y04274D01*
X014559Y04264D01*
X014759D01*
X014859Y04274D01*
Y04314D01*
X014759Y04324D01*
X015059Y04264D02*
Y04324D01*
X015359D01*
X015459Y04314D01*
Y04294D01*
X015359Y04284D01*
X015059D01*
X015259D02*
X015459Y04264D01*
X01212Y04919D02*
X01192D01*
X01202D01*
Y04869D01*
X01192Y04859D01*
X01182D01*
X01172Y04869D01*
X01232Y04859D02*
Y04899D01*
X01252Y04919D01*
X01272Y04899D01*
Y04859D01*
Y04889D01*
X01232D01*
X013319Y04909D02*
X01322Y04919D01*
X01302D01*
X01292Y04909D01*
Y04869D01*
X01302Y04859D01*
X01322D01*
X013319Y04869D01*
X013519Y04919D02*
Y04859D01*
Y04879D01*
X013919Y04919D01*
X013619Y04889D01*
X013919Y04859D01*
X014719Y04919D02*
Y04859D01*
X015019D01*
X015119Y04869D01*
Y04909D01*
X015019Y04919D01*
X014719D01*
X015719Y04909D02*
X015619Y04919D01*
X015419D01*
X015319Y04909D01*
Y04869D01*
X015419Y04859D01*
X015619D01*
X015719Y04869D01*
X015919Y04859D02*
X016119D01*
X016019D01*
Y04919D01*
X015919Y04909D01*
X05371Y04189D02*
Y04129D01*
X05401D01*
X05411Y04139D01*
Y04179D01*
X05401Y04189D01*
X05371D01*
X05431D02*
Y04129D01*
Y04159D01*
X05471D01*
Y04189D01*
Y04129D01*
X05491Y04189D02*
X055309D01*
X05511D01*
Y04129D01*
X055509D02*
X055709D01*
X055609D01*
Y04189D01*
X055509Y04179D01*
X056009Y04129D02*
X056209D01*
X056109D01*
Y04189D01*
X056009Y04179D01*
X0211Y05087D02*
Y05027D01*
X0215D01*
X0217D02*
Y05087D01*
X0219Y05067D01*
X0221Y05087D01*
Y05027D01*
X022699D02*
X0223D01*
X022699Y05067D01*
Y05077D01*
X0226Y05087D01*
X0224D01*
X0223Y05077D01*
X023299Y05087D02*
X022899D01*
Y05057D01*
X023099Y05067D01*
X023199D01*
X023299Y05057D01*
Y05037D01*
X023199Y05027D01*
X022999D01*
X022899Y05037D01*
X023499D02*
X023599Y05027D01*
X023799D01*
X023899Y05037D01*
Y05077D01*
X023799Y05087D01*
X023599D01*
X023499Y05077D01*
Y05067D01*
X023599Y05057D01*
X023899D01*
X024499Y05087D02*
X024299Y05077D01*
X024099Y05057D01*
Y05037D01*
X024199Y05027D01*
X024399D01*
X024499Y05037D01*
Y05047D01*
X024399Y05057D01*
X024099D01*
X0394Y04238D02*
X039D01*
Y04178D01*
X0394D01*
X039Y04208D02*
X0392D01*
X04Y04228D02*
X0399Y04238D01*
X0397D01*
X0396Y04228D01*
Y04218D01*
X0397Y04208D01*
X0399D01*
X04Y04198D01*
Y04188D01*
X0399Y04178D01*
X0397D01*
X0396Y04188D01*
X0402Y04178D02*
Y04238D01*
X0405D01*
X040599Y04228D01*
Y04208D01*
X0405Y04198D01*
X0402D01*
X040799Y04228D02*
X040899Y04238D01*
X041099D01*
X041199Y04228D01*
Y04218D01*
X041099Y04208D01*
X040999D01*
X041099D01*
X041199Y04198D01*
Y04188D01*
X041099Y04178D01*
X040899D01*
X040799Y04188D01*
X041799Y04178D02*
X041399D01*
X041799Y04218D01*
Y04228D01*
X041699Y04238D01*
X041499D01*
X041399Y04228D01*
M02*
