G04*
G04 #@! TF.GenerationSoftware,Altium Limited,Altium Designer,21.3.2 (30)*
G04*
G04 Layer_Color=2752767*
%FSTAX24Y24*%
%MOIN*%
G70*
G04*
G04 #@! TF.SameCoordinates,3835C71C-0E0A-43B1-8D6D-11D42CA83844*
G04*
G04*
G04 #@! TF.FilePolarity,Positive*
G04*
G01*
G75*
%ADD31C,0.0020*%
%ADD32C,0.0027*%
D31*
X03942Y03547D02*
Y03563D01*
X03958D01*
Y03547D01*
X03942D01*
X03757Y02747D02*
Y02763D01*
X03773D01*
Y02747D01*
X03757D01*
X04942Y03547D02*
Y03563D01*
X04958D01*
Y03547D01*
X04942D01*
X03942Y02347D02*
Y02363D01*
X03958D01*
Y02347D01*
X03942D01*
Y02447D02*
Y02463D01*
X03958D01*
Y02447D01*
X03942D01*
Y03047D02*
Y03063D01*
X03958D01*
Y03047D01*
X03942D01*
X04942Y03747D02*
Y03763D01*
X04958D01*
Y03747D01*
X04942D01*
X03742Y04641D02*
Y04657D01*
X03758D01*
Y04641D01*
X03742D01*
X04942Y03647D02*
Y03663D01*
X04958D01*
Y03647D01*
X04942D01*
X03742Y03952D02*
Y03968D01*
X03758D01*
Y03952D01*
X03742D01*
X03442Y02747D02*
Y02763D01*
X03458D01*
Y02747D01*
X03442D01*
X01465Y04652D02*
X01457Y04668D01*
X01473D01*
X01465Y04652D01*
X021672Y03952D02*
Y03968D01*
X021832D01*
Y03952D01*
X021672D01*
X0136Y03917D02*
X01364Y03921D01*
X01368D01*
X01364Y03925D01*
X01368Y03929D01*
X01364D01*
X0136Y03933D01*
X01356Y03929D01*
X01352D01*
X01356Y03925D01*
X01352Y03921D01*
X01356D01*
X0136Y03917D01*
X021672Y04641D02*
Y04657D01*
X021832D01*
Y04641D01*
X021672D01*
X01715Y04652D02*
X01707Y04668D01*
X01723D01*
X01715Y04652D01*
X0136Y04117D02*
X01364Y04121D01*
X01368D01*
X01364Y04125D01*
X01368Y04129D01*
X01364D01*
X0136Y04133D01*
X01356Y04129D01*
X01352D01*
X01356Y04125D01*
X01352Y04121D01*
X01356D01*
X0136Y04117D01*
X01615Y04452D02*
X01607Y04468D01*
X01623D01*
X01615Y04452D01*
X04942Y02347D02*
Y02363D01*
X04958D01*
Y02347D01*
X04942D01*
Y02447D02*
Y02463D01*
X04958D01*
Y02447D01*
X04942D01*
Y02547D02*
Y02563D01*
X04958D01*
Y02547D01*
X04942D01*
Y02647D02*
Y02663D01*
X04958D01*
Y02647D01*
X04942D01*
Y02747D02*
Y02763D01*
X04958D01*
Y02747D01*
X04942D01*
Y02847D02*
Y02863D01*
X04958D01*
Y02847D01*
X04942D01*
Y02947D02*
Y02963D01*
X04958D01*
Y02947D01*
X04942D01*
Y03047D02*
Y03063D01*
X04958D01*
Y03047D01*
X04942D01*
Y03147D02*
Y03163D01*
X04958D01*
Y03147D01*
X04942D01*
Y03247D02*
Y03263D01*
X04958D01*
Y03247D01*
X04942D01*
Y03347D02*
Y03363D01*
X04958D01*
Y03347D01*
X04942D01*
Y03447D02*
Y03463D01*
X04958D01*
Y03447D01*
X04942D01*
X03942Y02547D02*
Y02563D01*
X03958D01*
Y02547D01*
X03942D01*
Y02647D02*
Y02663D01*
X03958D01*
Y02647D01*
X03942D01*
Y02747D02*
Y02763D01*
X03958D01*
Y02747D01*
X03942D01*
Y02847D02*
Y02863D01*
X03958D01*
Y02847D01*
X03942D01*
Y02947D02*
Y02963D01*
X03958D01*
Y02947D01*
X03942D01*
Y03147D02*
Y03163D01*
X03958D01*
Y03147D01*
X03942D01*
Y03247D02*
Y03263D01*
X03958D01*
Y03247D01*
X03942D01*
Y03347D02*
Y03363D01*
X03958D01*
Y03347D01*
X03942D01*
Y03447D02*
Y03463D01*
X03958D01*
Y03447D01*
X03942D01*
Y03647D02*
Y03663D01*
X03958D01*
Y03647D01*
X03942D01*
Y03747D02*
Y03763D01*
X03958D01*
Y03747D01*
X03942D01*
D32*
X05423Y03935D02*
G03*
X05423Y03935I-00008J0D01*
G01*
X04348Y0458D02*
G03*
X04348Y0458I-00008J0D01*
G01*
X04448D02*
G03*
X04448Y0458I-00008J0D01*
G01*
X03513Y0329D02*
G03*
X03513Y0329I-00008J0D01*
G01*
X05423Y04035D02*
G03*
X05423Y04035I-00008J0D01*
G01*
X04548Y0458D02*
G03*
X04548Y0458I-00008J0D01*
G01*
X03513Y0339D02*
G03*
X03513Y0339I-00008J0D01*
G01*
X04648Y0458D02*
G03*
X04648Y0458I-00008J0D01*
G01*
X05423Y03835D02*
G03*
X05423Y03835I-00008J0D01*
G01*
X03513Y0349D02*
G03*
X03513Y0349I-00008J0D01*
G01*
M02*
