G04*
G04 #@! TF.GenerationSoftware,Altium Limited,Altium Designer,21.3.2 (30)*
G04*
G04 Layer_Physical_Order=2*
G04 Layer_Color=16711680*
%FSTAX24Y24*%
%MOIN*%
G70*
G04*
G04 #@! TF.SameCoordinates,3835C71C-0E0A-43B1-8D6D-11D42CA83844*
G04*
G04*
G04 #@! TF.FilePolarity,Positive*
G04*
G01*
G75*
%ADD21C,0.0276*%
%ADD22O,0.0984X0.0472*%
%ADD23C,0.0598*%
%ADD24R,0.0598X0.0598*%
%ADD25R,0.0598X0.0598*%
%ADD26R,0.0984X0.0472*%
%ADD27R,0.1000X0.1600*%
%ADD28C,0.1100*%
%ADD29R,0.1600X0.1000*%
G36*
X0583Y0202D02*
X05825Y02015D01*
X0581Y0203D01*
X01005D01*
Y05D01*
X0583D01*
Y0202D01*
D02*
G37*
%LPC*%
G36*
X04787Y047027D02*
X04623D01*
X046127Y047014D01*
X046031Y046974D01*
X045949Y046911D01*
X0454Y046362D01*
X044981Y046781D01*
X044899Y046844D01*
X044803Y046884D01*
X0447Y046897D01*
X04241D01*
X04241Y046897D01*
X042332Y046887D01*
X038047D01*
X038004Y04692D01*
X037884Y046969D01*
X037756Y046986D01*
X037244D01*
X037116Y046969D01*
X036996Y04692D01*
X036893Y046841D01*
X036814Y046738D01*
X036765Y046618D01*
X036748Y04649D01*
X036765Y046361D01*
X036814Y046242D01*
X036893Y046139D01*
X036996Y04606D01*
X037116Y04601D01*
X037244Y045993D01*
X037756D01*
X037884Y04601D01*
X038004Y04606D01*
X038047Y046093D01*
X03826D01*
X038281Y046043D01*
X030369Y038131D01*
X030306Y038049D01*
X030266Y037953D01*
X030253Y03785D01*
Y02657D01*
X030266Y026467D01*
X030306Y026371D01*
X030369Y026289D01*
X033389Y023269D01*
X033471Y023206D01*
X033567Y023166D01*
X03367Y023153D01*
X038953D01*
X038996Y02312D01*
X039116Y023071D01*
X039244Y023054D01*
X039756D01*
X039884Y023071D01*
X040004Y02312D01*
X040107Y023199D01*
X040186Y023302D01*
X040235Y023422D01*
X040252Y02355D01*
X040235Y023678D01*
X040186Y023798D01*
X040107Y023901D01*
X040004Y02398D01*
X039897Y024024D01*
X039897Y024024D01*
Y024076D01*
X039897Y024076D01*
X040004Y02412D01*
X040107Y024199D01*
X040186Y024302D01*
X040235Y024422D01*
X040252Y02455D01*
X040235Y024678D01*
X040186Y024798D01*
X040107Y024901D01*
X040004Y02498D01*
X039897Y025024D01*
X039897Y025024D01*
Y025076D01*
X039897Y025076D01*
X040004Y02512D01*
X040107Y025199D01*
X040186Y025302D01*
X040235Y025422D01*
X040252Y02555D01*
X040235Y025678D01*
X040186Y025798D01*
X040107Y025901D01*
X040004Y02598D01*
X039897Y026024D01*
X039897Y026024D01*
Y026076D01*
X039897Y026076D01*
X040004Y02612D01*
X040107Y026199D01*
X040186Y026302D01*
X040235Y026422D01*
X040252Y02655D01*
X040235Y026678D01*
X040186Y026798D01*
X040107Y026901D01*
X040004Y02698D01*
X039897Y027024D01*
X039897Y027024D01*
Y027076D01*
X039897Y027076D01*
X040004Y02712D01*
X040107Y027199D01*
X040186Y027302D01*
X040235Y027422D01*
X040252Y02755D01*
X040235Y027678D01*
X040186Y027798D01*
X040107Y027901D01*
X040004Y02798D01*
X039897Y028024D01*
X039897Y028024D01*
Y028076D01*
X039897Y028076D01*
X040004Y02812D01*
X040107Y028199D01*
X040186Y028302D01*
X040235Y028422D01*
X040252Y02855D01*
X040235Y028678D01*
X040186Y028798D01*
X040107Y028901D01*
X040004Y02898D01*
X039897Y029024D01*
X039897Y029024D01*
Y029076D01*
X039897Y029076D01*
X040004Y02912D01*
X040107Y029199D01*
X040186Y029302D01*
X040235Y029422D01*
X040252Y02955D01*
X040235Y029678D01*
X040186Y029798D01*
X040107Y029901D01*
X040004Y02998D01*
X039897Y030024D01*
X039897Y030024D01*
Y030076D01*
X039897Y030076D01*
X040004Y03012D01*
X040107Y030199D01*
X040186Y030302D01*
X040235Y030422D01*
X040252Y03055D01*
X040235Y030678D01*
X040186Y030798D01*
X040107Y030901D01*
X040004Y03098D01*
X039897Y031024D01*
X039897Y031024D01*
Y031076D01*
X039897Y031076D01*
X040004Y03112D01*
X040107Y031199D01*
X040186Y031302D01*
X040235Y031422D01*
X040252Y03155D01*
X040235Y031678D01*
X040186Y031798D01*
X040107Y031901D01*
X040004Y03198D01*
X039897Y032024D01*
X039897Y032024D01*
Y032076D01*
X039897Y032076D01*
X040004Y03212D01*
X040107Y032199D01*
X040186Y032302D01*
X040235Y032422D01*
X040252Y03255D01*
X040235Y032678D01*
X040186Y032798D01*
X040107Y032901D01*
X040004Y03298D01*
X039897Y033024D01*
X039897Y033024D01*
Y033076D01*
X039897Y033076D01*
X040004Y03312D01*
X040107Y033199D01*
X040186Y033302D01*
X040235Y033422D01*
X040252Y03355D01*
X040235Y033678D01*
X040186Y033798D01*
X040107Y033901D01*
X040004Y03398D01*
X039897Y034024D01*
X039897Y034024D01*
Y034076D01*
X039897Y034076D01*
X040004Y03412D01*
X040107Y034199D01*
X040186Y034302D01*
X040235Y034422D01*
X040252Y03455D01*
X040235Y034678D01*
X040186Y034798D01*
X040107Y034901D01*
X040004Y03498D01*
X039897Y035024D01*
X039897Y035024D01*
Y035076D01*
X039897Y035076D01*
X040004Y03512D01*
X040107Y035199D01*
X040186Y035302D01*
X040235Y035422D01*
X040252Y03555D01*
X040235Y035678D01*
X040186Y035798D01*
X040107Y035901D01*
X040004Y03598D01*
X039897Y036024D01*
X039897Y036024D01*
Y036076D01*
X039897Y036076D01*
X040004Y03612D01*
X040107Y036199D01*
X040186Y036302D01*
X040235Y036422D01*
X040252Y03655D01*
X040235Y036678D01*
X040186Y036798D01*
X040107Y036901D01*
X040004Y03698D01*
X039936Y037008D01*
X039946Y037058D01*
X040248D01*
Y037853D01*
X043636D01*
X048213Y033276D01*
Y02296D01*
X048226Y022857D01*
X048266Y022761D01*
X048329Y022679D01*
X049219Y021789D01*
X049301Y021726D01*
X049397Y021686D01*
X0495Y021673D01*
X054D01*
X054103Y021686D01*
X054199Y021726D01*
X054281Y021789D01*
X056231Y023739D01*
X056231Y023739D01*
X056294Y023821D01*
X056334Y023917D01*
X056347Y02402D01*
Y03894D01*
X056334Y039043D01*
X056294Y039139D01*
X056231Y039221D01*
X054821Y040631D01*
X054739Y040694D01*
X054643Y040734D01*
X054545Y040746D01*
X05443Y040835D01*
X054295Y040891D01*
X054152Y04091D01*
X048151Y046911D01*
X048069Y046974D01*
X047973Y047014D01*
X04787Y047027D01*
D02*
G37*
G36*
X01684Y048207D02*
X01391D01*
X013807Y048194D01*
X013711Y048154D01*
X013629Y048091D01*
X013319Y047781D01*
X013256Y047699D01*
X013216Y047603D01*
X013203Y0475D01*
Y041952D01*
X01315Y041923D01*
X013027Y041823D01*
X012927Y0417D01*
X012852Y04156D01*
X012806Y041408D01*
X01279Y04125D01*
X012806Y041092D01*
X012852Y04094D01*
X012927Y0408D01*
X013027Y040677D01*
X01315Y040577D01*
X01329Y040502D01*
X013442Y040456D01*
X0136Y04044D01*
X013758Y040456D01*
X01391Y040502D01*
X01405Y040577D01*
X014173Y040677D01*
X014206Y040718D01*
X014253Y040701D01*
Y040464D01*
X013815Y040027D01*
X013758Y040044D01*
X0136Y04006D01*
X013442Y040044D01*
X01329Y039998D01*
X01315Y039923D01*
X013027Y039823D01*
X012927Y0397D01*
X012852Y03956D01*
X012806Y039408D01*
X01279Y03925D01*
X012806Y039092D01*
X012852Y03894D01*
X012927Y0388D01*
X013027Y038677D01*
X01315Y038577D01*
X01329Y038502D01*
X013442Y038456D01*
X0136Y03844D01*
X013758Y038456D01*
X01391Y038502D01*
X01405Y038577D01*
X014173Y038677D01*
X014273Y0388D01*
X014332Y03891D01*
X018036Y039203D01*
X021205D01*
X021248Y03917D01*
X021368Y039121D01*
X021496Y039104D01*
X022008D01*
X022136Y039121D01*
X022256Y03917D01*
X022359Y039249D01*
X022438Y039352D01*
X022487Y039472D01*
X022504Y0396D01*
X022487Y039728D01*
X022438Y039848D01*
X022359Y039951D01*
X022256Y04003D01*
X022136Y040079D01*
X022008Y040096D01*
X021496D01*
X021368Y040079D01*
X021248Y04003D01*
X021205Y039997D01*
X01802D01*
X018004Y039995D01*
X017989Y039996D01*
X014715Y039737D01*
X014694Y039782D01*
X014931Y040019D01*
X014994Y040101D01*
X015034Y040197D01*
X015047Y0403D01*
Y043837D01*
X015094Y043844D01*
X015097Y043844D01*
X017206D01*
Y045356D01*
X015097D01*
X015094Y045356D01*
X015047Y045363D01*
Y045544D01*
X015406D01*
Y047413D01*
X016394D01*
Y045544D01*
X017906D01*
Y046203D01*
X019227D01*
X019302Y046146D01*
X019397Y046106D01*
X0195Y046093D01*
X0195Y046093D01*
X021004D01*
Y045998D01*
X0225D01*
Y046982D01*
X021004D01*
Y046887D01*
X019663D01*
X019589Y046944D01*
X019493Y046984D01*
X01939Y046997D01*
X017906D01*
Y047656D01*
X017512D01*
X017494Y047699D01*
X017431Y047781D01*
X017121Y048091D01*
X017039Y048154D01*
X016943Y048194D01*
X01684Y048207D01*
D02*
G37*
%LPD*%
G36*
X042845Y045245D02*
X043618D01*
X043637Y045199D01*
X039586Y041147D01*
X03554D01*
X03554Y041147D01*
X035437Y041134D01*
X035341Y041094D01*
X035259Y041031D01*
X035259Y041031D01*
X031969Y037741D01*
X031906Y037659D01*
X031866Y037563D01*
X031853Y03746D01*
Y02645D01*
X031866Y026347D01*
X031906Y026251D01*
X031969Y026169D01*
X033869Y024269D01*
X033951Y024206D01*
X034047Y024166D01*
X03415Y024153D01*
X03415Y024153D01*
X038953D01*
X038996Y02412D01*
X039103Y024076D01*
X039103Y024076D01*
Y024024D01*
X039103Y024024D01*
X038996Y02398D01*
X038953Y023947D01*
X033834D01*
X031047Y026734D01*
Y037686D01*
X038764Y045403D01*
X042845D01*
Y045245D01*
D02*
G37*
G36*
X04493Y0455D02*
X045004Y045404D01*
X04512Y045315D01*
X045235Y045267D01*
X045251Y045213D01*
X040036Y039997D01*
X035414D01*
X035395Y040043D01*
X035704Y040353D01*
X03975D01*
X039853Y040366D01*
X039949Y040406D01*
X040031Y040469D01*
X044681Y045119D01*
X044744Y045201D01*
X044784Y045297D01*
X044797Y0454D01*
Y045406D01*
X04487Y0455D01*
X044876Y045503D01*
X044924D01*
X04493Y0455D01*
D02*
G37*
G36*
X05359Y040348D02*
X053609Y040205D01*
X053665Y04007D01*
X053754Y039954D01*
X05385Y03988D01*
X053853Y039874D01*
Y039826D01*
X05385Y03982D01*
X053754Y039746D01*
X053665Y03963D01*
X053617Y039515D01*
X053563Y039499D01*
X046981Y046081D01*
X046899Y046144D01*
X046803Y046184D01*
X04681Y046233D01*
X047706D01*
X05359Y040348D01*
D02*
G37*
G36*
X053588Y03835D02*
X052186Y036947D01*
X0495D01*
X049397Y036934D01*
X049301Y036894D01*
X049295Y036889D01*
X049244D01*
X049156Y036878D01*
X049075Y036844D01*
X049052Y036826D01*
X049007Y036848D01*
Y037063D01*
X049052Y037097D01*
X049116Y037071D01*
X049244Y037054D01*
X049756D01*
X049884Y037071D01*
X050004Y03712D01*
X050107Y037199D01*
X050186Y037302D01*
X050235Y037422D01*
X050252Y03755D01*
X050235Y037678D01*
X050186Y037798D01*
X050107Y037901D01*
X050004Y03798D01*
X049884Y038029D01*
X049756Y038046D01*
X049244D01*
X049116Y038029D01*
X048996Y03798D01*
X048953Y037947D01*
X04891D01*
X048807Y037934D01*
X048711Y037894D01*
X048629Y037831D01*
X048329Y037531D01*
X048266Y037449D01*
X048226Y037353D01*
X048213Y03725D01*
Y034464D01*
X048167Y034445D01*
X044081Y038531D01*
X043999Y038594D01*
X043903Y038634D01*
X0438Y038647D01*
X03706D01*
X036957Y038634D01*
X036861Y038594D01*
X036779Y038531D01*
X036779Y038531D01*
X036169Y037921D01*
X036106Y037839D01*
X036066Y037743D01*
X036053Y03764D01*
Y034364D01*
X035986Y034297D01*
X035444D01*
X03533Y034385D01*
X035195Y034441D01*
X035099Y034453D01*
Y034504D01*
X035154Y034511D01*
X035251Y034551D01*
X035335Y034615D01*
X035399Y034699D01*
X035439Y034796D01*
X035446Y03485D01*
X03505D01*
Y03495D01*
X035448D01*
X035539Y039203D01*
X0402D01*
X040303Y039216D01*
X040399Y039256D01*
X040481Y039319D01*
X04655Y045388D01*
X053588Y03835D01*
D02*
G37*
G36*
X054853Y038436D02*
Y036864D01*
X053936Y035947D01*
X050047D01*
X050004Y03598D01*
X049884Y036029D01*
X049756Y036046D01*
X049244D01*
X049116Y036029D01*
X049049Y036002D01*
X049007Y03603D01*
Y036252D01*
X049052Y036274D01*
X049075Y036256D01*
X049156Y036222D01*
X049244Y036211D01*
X049295D01*
X049301Y036206D01*
X049397Y036166D01*
X0495Y036153D01*
X05235D01*
X052453Y036166D01*
X052549Y036206D01*
X052631Y036269D01*
X054312Y037951D01*
X054549D01*
Y0383D01*
X05415D01*
Y0384D01*
X054549D01*
Y038674D01*
X054595Y038693D01*
X054853Y038436D01*
D02*
G37*
G36*
X038752Y037058D02*
X039054D01*
X039064Y037008D01*
X038996Y03698D01*
X038893Y036901D01*
X038814Y036798D01*
X038765Y036678D01*
X038748Y03655D01*
X038765Y036422D01*
X038814Y036302D01*
X038893Y036199D01*
X038996Y03612D01*
X039103Y036076D01*
X039103Y036076D01*
Y036024D01*
X039103Y036024D01*
X038996Y03598D01*
X038893Y035901D01*
X038814Y035798D01*
X038765Y035678D01*
X038748Y03555D01*
X038765Y035422D01*
X038814Y035302D01*
X038893Y035199D01*
X038996Y03512D01*
X039103Y035076D01*
X039103Y035076D01*
Y035024D01*
X039103Y035024D01*
X038996Y03498D01*
X038893Y034901D01*
X038814Y034798D01*
X038765Y034678D01*
X038748Y03455D01*
X038765Y034422D01*
X038814Y034302D01*
X038893Y034199D01*
X038996Y03412D01*
X039103Y034076D01*
X039103Y034076D01*
Y034024D01*
X039103Y034024D01*
X038996Y03398D01*
X038893Y033901D01*
X038814Y033798D01*
X038765Y033678D01*
X038748Y03355D01*
X038765Y033422D01*
X038814Y033302D01*
X038893Y033199D01*
X038996Y03312D01*
X039103Y033076D01*
X039103Y033076D01*
Y033024D01*
X039103Y033024D01*
X038996Y03298D01*
X038893Y032901D01*
X038814Y032798D01*
X038765Y032678D01*
X038748Y03255D01*
X038765Y032422D01*
X038814Y032302D01*
X038893Y032199D01*
X038996Y03212D01*
X039103Y032076D01*
X039103Y032076D01*
Y032024D01*
X039103Y032024D01*
X038996Y03198D01*
X038893Y031901D01*
X038814Y031798D01*
X038765Y031678D01*
X038748Y03155D01*
X038765Y031422D01*
X038814Y031302D01*
X038893Y031199D01*
X038996Y03112D01*
X039103Y031076D01*
X039103Y031076D01*
Y031024D01*
X039103Y031024D01*
X038996Y03098D01*
X038953Y030947D01*
X037564D01*
X035605Y032906D01*
Y033455D01*
X035605D01*
X03561Y033503D01*
X03615D01*
X036253Y033516D01*
X036349Y033556D01*
X036431Y033619D01*
X036731Y033919D01*
X036794Y034001D01*
X036834Y034097D01*
X036847Y0342D01*
Y037476D01*
X037224Y037853D01*
X038752D01*
Y037058D01*
D02*
G37*
G36*
X034747Y03933D02*
X034661Y035297D01*
X03365D01*
X033547Y035284D01*
X033451Y035244D01*
X033369Y035181D01*
X032919Y034731D01*
X032856Y034649D01*
X032816Y034553D01*
X032803Y03445D01*
Y027711D01*
X032816Y027609D01*
X032856Y027513D01*
X032919Y027431D01*
X033081Y027269D01*
X033163Y027206D01*
X033259Y027166D01*
X033361Y027153D01*
X033361Y027153D01*
X0345D01*
X034603Y027166D01*
X034699Y027206D01*
X034709Y027214D01*
X035093D01*
Y0275D01*
X0345D01*
Y0276D01*
X035093D01*
Y027886D01*
X034709D01*
X034699Y027894D01*
X034603Y027934D01*
X0345Y027947D01*
X033597D01*
Y034286D01*
X033814Y034503D01*
X034994D01*
X034997Y034453D01*
X034905Y034441D01*
X03477Y034385D01*
X034654Y034296D01*
X034565Y03418D01*
X034509Y034045D01*
X03449Y0339D01*
X034509Y033755D01*
X034565Y03362D01*
X034653Y033505D01*
X034651Y033486D01*
X03464Y033455D01*
X034495D01*
Y032345D01*
X035044D01*
X037119Y030269D01*
X037201Y030206D01*
X037297Y030166D01*
X0374Y030153D01*
X0374Y030153D01*
X038953D01*
X038996Y03012D01*
X039103Y030076D01*
X039103Y030076D01*
Y030024D01*
X039103Y030024D01*
X038996Y02998D01*
X038893Y029901D01*
X038814Y029798D01*
X038765Y029678D01*
X038748Y02955D01*
X038765Y029422D01*
X038814Y029302D01*
X038893Y029199D01*
X038996Y02912D01*
X039103Y029076D01*
X039103Y029076D01*
Y029024D01*
X039103Y029024D01*
X038996Y02898D01*
X038893Y028901D01*
X038814Y028798D01*
X038765Y028678D01*
X038748Y02855D01*
X038765Y028422D01*
X038814Y028302D01*
X038893Y028199D01*
X038996Y02812D01*
X039103Y028076D01*
X039103Y028076D01*
Y028024D01*
X039103Y028024D01*
X038996Y02798D01*
X038953Y027947D01*
X038197D01*
X038154Y02798D01*
X038034Y028029D01*
X037906Y028046D01*
X037394D01*
X037266Y028029D01*
X037146Y02798D01*
X037043Y027901D01*
X036964Y027798D01*
X036915Y027678D01*
X036898Y02755D01*
X036915Y027422D01*
X036964Y027302D01*
X037043Y027199D01*
X037146Y02712D01*
X037266Y027071D01*
X037394Y027054D01*
X037906D01*
X038034Y027071D01*
X038154Y02712D01*
X038197Y027153D01*
X038953D01*
X038996Y02712D01*
X039103Y027076D01*
X039103Y027076D01*
Y027024D01*
X039103Y027024D01*
X038996Y02698D01*
X038893Y026901D01*
X038814Y026798D01*
X038765Y026678D01*
X038748Y02655D01*
X038765Y026422D01*
X038814Y026302D01*
X038893Y026199D01*
X038996Y02612D01*
X039103Y026076D01*
X039103Y026076D01*
Y026024D01*
X039103Y026024D01*
X038996Y02598D01*
X038893Y025901D01*
X038814Y025798D01*
X038765Y025678D01*
X038748Y02555D01*
X038765Y025422D01*
X038814Y025302D01*
X038893Y025199D01*
X038996Y02512D01*
X039103Y025076D01*
X039103Y025076D01*
Y025024D01*
X039103Y025024D01*
X038996Y02498D01*
X038953Y024947D01*
X034314D01*
X032647Y026614D01*
Y037296D01*
X034701Y03935D01*
X034747Y03933D01*
D02*
G37*
G36*
X055553Y036371D02*
Y024184D01*
X053836Y022467D01*
X049664D01*
X049111Y023021D01*
X049134Y023068D01*
X049244Y023054D01*
X049756D01*
X049884Y023071D01*
X050004Y02312D01*
X050107Y023199D01*
X050186Y023302D01*
X050235Y023422D01*
X050252Y02355D01*
X050235Y023678D01*
X050186Y023798D01*
X050107Y023901D01*
X050004Y02398D01*
X049897Y024024D01*
X049897Y024024D01*
Y024076D01*
X049897Y024076D01*
X050004Y02412D01*
X050107Y024199D01*
X050186Y024302D01*
X050235Y024422D01*
X050252Y02455D01*
X050235Y024678D01*
X050186Y024798D01*
X050107Y024901D01*
X050004Y02498D01*
X049897Y025024D01*
X049897Y025024D01*
Y025076D01*
X049897Y025076D01*
X050004Y02512D01*
X050107Y025199D01*
X050186Y025302D01*
X050235Y025422D01*
X050252Y02555D01*
X050235Y025678D01*
X050186Y025798D01*
X050107Y025901D01*
X050004Y02598D01*
X049897Y026024D01*
X049897Y026024D01*
Y026076D01*
X049897Y026076D01*
X050004Y02612D01*
X050107Y026199D01*
X050186Y026302D01*
X050235Y026422D01*
X050252Y02655D01*
X050235Y026678D01*
X050186Y026798D01*
X050107Y026901D01*
X050004Y02698D01*
X049897Y027024D01*
X049897Y027024D01*
Y027076D01*
X049897Y027076D01*
X050004Y02712D01*
X050107Y027199D01*
X050186Y027302D01*
X050235Y027422D01*
X050252Y02755D01*
X050235Y027678D01*
X050186Y027798D01*
X050107Y027901D01*
X050004Y02798D01*
X049897Y028024D01*
X049897Y028024D01*
Y028076D01*
X049897Y028076D01*
X050004Y02812D01*
X050107Y028199D01*
X050186Y028302D01*
X050235Y028422D01*
X050252Y02855D01*
X050235Y028678D01*
X050186Y028798D01*
X050107Y028901D01*
X050004Y02898D01*
X049897Y029024D01*
X049897Y029024D01*
Y029076D01*
X049897Y029076D01*
X050004Y02912D01*
X050107Y029199D01*
X050186Y029302D01*
X050235Y029422D01*
X050252Y02955D01*
X050235Y029678D01*
X050186Y029798D01*
X050107Y029901D01*
X050004Y02998D01*
X049897Y030024D01*
X049897Y030024D01*
Y030076D01*
X049897Y030076D01*
X050004Y03012D01*
X050107Y030199D01*
X050186Y030302D01*
X050235Y030422D01*
X050252Y03055D01*
X050235Y030678D01*
X050186Y030798D01*
X050107Y030901D01*
X050004Y03098D01*
X049897Y031024D01*
X049897Y031024D01*
Y031076D01*
X049897Y031076D01*
X050004Y03112D01*
X050107Y031199D01*
X050186Y031302D01*
X050235Y031422D01*
X050252Y03155D01*
X050235Y031678D01*
X050186Y031798D01*
X050107Y031901D01*
X050004Y03198D01*
X049897Y032024D01*
X049897Y032024D01*
Y032076D01*
X049897Y032076D01*
X050004Y03212D01*
X050107Y032199D01*
X050186Y032302D01*
X050235Y032422D01*
X050252Y03255D01*
X050235Y032678D01*
X050186Y032798D01*
X050107Y032901D01*
X050004Y03298D01*
X049897Y033024D01*
X049897Y033024D01*
Y033076D01*
X049897Y033076D01*
X050004Y03312D01*
X050107Y033199D01*
X050186Y033302D01*
X050235Y033422D01*
X050252Y03355D01*
X050235Y033678D01*
X050186Y033798D01*
X050107Y033901D01*
X050004Y03398D01*
X049897Y034024D01*
X049897Y034024D01*
Y034076D01*
X049897Y034076D01*
X050004Y03412D01*
X050107Y034199D01*
X050186Y034302D01*
X050235Y034422D01*
X050252Y03455D01*
X050235Y034678D01*
X050186Y034798D01*
X050107Y034901D01*
X050004Y03498D01*
X049897Y035024D01*
X049897Y035024D01*
Y035076D01*
X049897Y035076D01*
X050004Y03512D01*
X050047Y035153D01*
X0541D01*
X054203Y035166D01*
X054299Y035206D01*
X054381Y035269D01*
X055503Y036391D01*
X055553Y036371D01*
D02*
G37*
G36*
X014253Y041799D02*
X014206Y041782D01*
X014173Y041823D01*
X01405Y041923D01*
X013997Y041952D01*
Y045544D01*
X014253D01*
Y041799D01*
D02*
G37*
D21*
X03225Y02645D02*
Y03746D01*
X03415Y02455D02*
X0395D01*
X03225Y02645D02*
X03415Y02455D01*
X03975Y04075D02*
X0444Y0454D01*
X03225Y03746D02*
X03554Y04075D01*
X03975D01*
X03505Y0339D02*
X03615D01*
X03645Y0342D02*
Y03764D01*
X03615Y0339D02*
X03645Y0342D01*
Y03764D02*
X03706Y03825D01*
X03365Y0349D02*
X03505D01*
X0332Y027711D02*
Y03445D01*
X03365Y0349D01*
X0332Y027711D02*
X033361Y02755D01*
X0345D01*
X03065Y02657D02*
Y03785D01*
Y02657D02*
X03367Y02355D01*
X03065Y03785D02*
X0386Y0458D01*
X054203Y039297D02*
X054553D01*
X054807Y039043D02*
X05525Y0386D01*
X054807Y039043D02*
X054807D01*
X05415Y03935D02*
X054203Y039297D01*
X054553D02*
X054807Y039043D01*
X05525Y0367D02*
Y0386D01*
X0541Y03555D02*
X05525Y0367D01*
X05454Y04035D02*
X05595Y03894D01*
X054Y02207D02*
X05595Y02402D01*
Y03894D01*
X04861Y03344D02*
Y03725D01*
X03706Y03825D02*
X0438D01*
X04861Y03344D01*
Y02296D02*
Y03344D01*
X05415Y04035D02*
X05454D01*
X0454Y0458D02*
X04623Y04663D01*
X04787D01*
X05415Y04035D01*
X0444Y0454D02*
Y0458D01*
X03765Y02755D02*
X0395D01*
X0136Y04125D02*
Y0475D01*
X01391Y04781D01*
X01684D01*
X01715Y0475D01*
Y0466D02*
Y0475D01*
Y0466D02*
X01939D01*
X0195Y04649D01*
X021752D01*
X0136Y03925D02*
X01465Y0403D01*
Y0466D01*
X0136Y03925D02*
X01802Y0396D01*
X021752D01*
X03505Y0349D02*
X03515Y0396D01*
X0375D01*
X0402D01*
X0464Y0458D01*
X0467D01*
X05415Y03835D01*
X05235Y03655D02*
X05415Y03835D01*
X0495Y03655D02*
X05235D01*
X04891Y03755D02*
X0495D01*
X04861Y03725D02*
X04891Y03755D01*
X04861Y02296D02*
X0495Y02207D01*
X054D01*
X0447Y0465D02*
X0454Y0458D01*
X04241Y0465D02*
X0447D01*
X0424Y04649D02*
X04241Y0465D01*
X0375Y04649D02*
X0424D01*
X03505Y0329D02*
X0374Y03055D01*
X0395D01*
X03367Y02355D02*
X0395D01*
X0386Y0458D02*
X0434D01*
X0495Y03555D02*
X0541D01*
D22*
X0395D02*
D03*
X03765Y02755D02*
D03*
X0495Y03555D02*
D03*
X0395Y02355D02*
D03*
Y02455D02*
D03*
Y03055D02*
D03*
X0495Y03755D02*
D03*
X0375Y04649D02*
D03*
X0495Y03655D02*
D03*
X0375Y0396D02*
D03*
X021752D02*
D03*
X0495Y02355D02*
D03*
Y02455D02*
D03*
Y02555D02*
D03*
Y02655D02*
D03*
Y02755D02*
D03*
Y02855D02*
D03*
Y02955D02*
D03*
Y03055D02*
D03*
Y03155D02*
D03*
Y03255D02*
D03*
Y03355D02*
D03*
Y03455D02*
D03*
X0395Y02555D02*
D03*
Y02655D02*
D03*
Y02755D02*
D03*
Y02855D02*
D03*
Y02955D02*
D03*
Y03155D02*
D03*
Y03255D02*
D03*
Y03355D02*
D03*
Y03455D02*
D03*
Y03655D02*
D03*
D23*
X05415Y03935D02*
D03*
X0444Y0458D02*
D03*
X05415Y04035D02*
D03*
X0454Y0458D02*
D03*
X03505Y0339D02*
D03*
X0464Y0458D02*
D03*
X03505Y0349D02*
D03*
D24*
X0434Y0458D02*
D03*
D25*
X03505Y0329D02*
D03*
X05415Y03835D02*
D03*
D26*
X0345Y02755D02*
D03*
X021752Y04649D02*
D03*
X0395Y03755D02*
D03*
D27*
X01465Y0466D02*
D03*
X01715D02*
D03*
D28*
X0136Y03925D02*
D03*
Y04125D02*
D03*
D29*
X01615Y0446D02*
D03*
M02*
