G04*
G04 #@! TF.GenerationSoftware,Altium Limited,Altium Designer,21.3.2 (30)*
G04*
G04 Layer_Color=8388736*
%FSTAX24Y24*%
%MOIN*%
G70*
G04*
G04 #@! TF.SameCoordinates,3835C71C-0E0A-43B1-8D6D-11D42CA83844*
G04*
G04*
G04 #@! TF.FilePolarity,Negative*
G04*
G01*
G75*
%ADD13O,0.1064X0.0552*%
%ADD14C,0.0678*%
%ADD15R,0.0678X0.0678*%
%ADD16R,0.0678X0.0678*%
%ADD17R,0.1064X0.0552*%
%ADD18R,0.1080X0.1680*%
%ADD19C,0.1180*%
%ADD20R,0.1680X0.1080*%
D13*
X0395Y03555D02*
D03*
X03765Y02755D02*
D03*
X0495Y03555D02*
D03*
X0395Y02355D02*
D03*
Y02455D02*
D03*
Y03055D02*
D03*
X0495Y03755D02*
D03*
X0375Y04649D02*
D03*
X0495Y03655D02*
D03*
X0375Y0396D02*
D03*
X021752D02*
D03*
X0495Y02355D02*
D03*
Y02455D02*
D03*
Y02555D02*
D03*
Y02655D02*
D03*
Y02755D02*
D03*
Y02855D02*
D03*
Y02955D02*
D03*
Y03055D02*
D03*
Y03155D02*
D03*
Y03255D02*
D03*
Y03355D02*
D03*
Y03455D02*
D03*
X0395Y02555D02*
D03*
Y02655D02*
D03*
Y02755D02*
D03*
Y02855D02*
D03*
Y02955D02*
D03*
Y03155D02*
D03*
Y03255D02*
D03*
Y03355D02*
D03*
Y03455D02*
D03*
Y03655D02*
D03*
D14*
X05415Y03935D02*
D03*
X0444Y0458D02*
D03*
X05415Y04035D02*
D03*
X0454Y0458D02*
D03*
X03505Y0339D02*
D03*
X0464Y0458D02*
D03*
X03505Y0349D02*
D03*
D15*
X0434Y0458D02*
D03*
D16*
X03505Y0329D02*
D03*
X05415Y03835D02*
D03*
D17*
X0345Y02755D02*
D03*
X021752Y04649D02*
D03*
X0395Y03755D02*
D03*
D18*
X01465Y0466D02*
D03*
X01715D02*
D03*
D19*
X0136Y03925D02*
D03*
Y04125D02*
D03*
D20*
X01615Y0446D02*
D03*
M02*
